<svg width="64" height="64" viewBox="0 0 64 64" fill="none" xmlns="http://www.w3.org/2000/svg">
<g clip-path="url(#clip0_28_1381)">
<path d="M54.4 0H9.6C4.29807 0 0 4.29807 0 9.6V54.4C0 59.7019 4.29807 64 9.6 64H54.4C59.7019 64 64 59.7019 64 54.4V9.6C64 4.29807 59.7019 0 54.4 0Z" fill="#37AEE2"/>
<path d="M24.875 50.5C23.5 50.5 23.625 50 23.25 48.75L19.25 35.625L49.875 17.625" fill="#C8DAEA"/>
<path d="M24.875 50.5C25.75 50.5 26.25 50 26.875 49.5L32.5 44.125L25.5 39.875" fill="#A9C9DD"/>
<path d="M25.5001 39.8746L42.3751 52.2496C44.1251 53.3746 45.6251 52.7496 46.1251 50.4996L53.0001 18.2496C53.6251 15.4996 51.8751 14.2496 50.0001 15.1246L9.87506 30.6246C7.25006 31.6246 7.25006 33.2496 9.37506 33.8746L19.7501 37.1246L43.5001 21.9996C44.6251 21.3746 45.6251 21.6246 44.8751 22.4996" fill="#F6FBFE"/>
</g>
<defs>
<clipPath id="clip0_28_1381">
<rect width="64" height="64" fill="white"/>
</clipPath>
</defs>
</svg>
